<svg width="130" height="150" viewBox="0 0 130 150" fill="none" xmlns="http://www.w3.org/2000/svg">
<path d="M61.813 84.4667C72.3185 63.3853 84.2341 43.5025 97.9123 24.5362C94.8805 22.4915 87.4774 16.992 84.4456 15.0884C83.67 14.5948 83.3175 14.1013 84.1636 13.3962C87.9004 10.2939 92.7654 8.67229 97.4893 7.6147C102.707 6.41609 107.854 5.14697 113.001 3.80735C116.032 3.03178 121.32 -0.141006 122.026 4.65343C122.942 10.435 123.859 16.2165 124.846 21.998C125.339 24.8888 125.903 27.7795 126.467 30.5998C126.82 32.2919 128.23 35.4647 126.679 36.8043C125.621 37.7209 124.564 37.2979 123.436 36.8749C117.513 34.4071 112.789 32.2214 106.585 29.6832C105.104 31.5869 103.482 33.7726 101.79 35.9583C86.3493 56.1231 75.0682 78.3326 68.6522 102.869C67.9471 105.619 67.383 108.368 66.6075 111.118C65.6909 114.502 61.39 109.849 60.5439 108.58C57.4416 103.926 55.7495 98.4974 53.1408 93.6325C51.1666 89.9662 49.1219 86.2998 47.4297 82.4925C46.7952 81.0119 45.5966 79.6722 44.4685 78.0506C43.8339 80.0248 43.2699 81.6464 42.7058 83.2681C36.6423 101.811 31.3543 120.636 27.0534 139.673C26.3483 142.634 24.4447 142.282 21.9064 141.436C19.2272 140.449 16.4069 139.814 13.5162 139.532C12.0355 139.391 9.70882 139.391 8.72173 138.052C7.66413 136.5 9.21527 135.02 9.92034 133.68C10.8369 131.917 11.7535 130.155 12.5996 128.392C14.2917 124.796 15.7724 121.13 17.3235 117.464C23.1755 103.292 29.0981 89.1906 35.0206 75.0188C35.1616 74.7368 35.3026 74.3843 35.3731 74.1022C36.6423 71.141 38.3344 68.2502 39.0395 65.1479C39.533 63.0327 40.4496 61.3406 41.5777 59.6484C42.1418 58.8023 42.3533 57.6742 42.9173 56.8282C43.3404 56.1936 44.1159 55.4885 44.7505 55.418C45.3145 55.3475 46.2311 56.0526 46.5837 56.6166C50.7435 63.9493 54.7624 71.3525 58.8518 78.6851C59.9094 80.5183 60.7555 82.422 61.813 84.4667Z" fill="#C42B39"/>
<path d="M120.477 8.17879C119.772 8.3198 119.561 8.03778 119.349 7.61474C118.644 5.78157 117.516 5.35853 115.683 5.92259C114.132 6.41613 112.722 7.12119 111.453 8.10828C111.382 8.17879 111.241 8.17879 110.959 8.10828C111.1 7.82626 111.171 7.54423 111.382 7.33271C113.004 5.78157 114.978 4.86499 117.305 4.86499C118.785 4.86499 120.125 6.48664 120.548 7.61474C120.477 7.89676 120.477 8.10828 120.477 8.17879Z" fill="white" stroke="white"/>
<path d="M98.3394 27.8501C97.9164 28.6257 97.5639 29.3307 97.1408 30.1063L95.9422 32.3625C95.0961 33.8431 94.2501 35.3238 93.263 36.7339C92.2759 38.144 91.2888 39.4836 90.2312 40.8233L88.6801 42.7974C88.116 43.432 87.6225 44.1371 87.1289 44.7716C87.9045 43.2205 88.8916 41.8809 89.8081 40.4707L92.6989 36.3109C93.6155 34.9007 94.5321 33.4906 95.4487 32.0805C96.4357 30.5998 97.2818 29.1897 98.3394 27.8501Z" fill="white" stroke="white"/>
<path d="M67.2464 101.388C66.9644 101.459 66.7528 101.459 66.5413 101.529C66.4003 102.234 66.2593 102.869 66.1888 103.574C66.1183 104.631 65.6952 105.619 65.2017 106.535C64.7082 107.452 64.0736 108.157 62.875 107.875C62.9455 108.509 63.157 108.721 63.7211 108.721C64.7082 108.721 65.3427 108.086 65.6953 107.24C66.0478 106.394 66.4003 105.478 66.6118 104.631C66.8234 103.856 66.9644 103.01 67.1759 102.164C67.2464 101.882 67.2464 101.67 67.2464 101.388Z" fill="white" stroke="white"/>
<path d="M44.8995 61.0587C42.1497 64.6545 41.0216 68.9554 39.4 73.0448C39.3295 73.0448 39.1885 73.1153 39.1885 73.0448C39.0475 72.9743 38.977 72.9038 38.8359 72.8333C38.8359 72.6217 38.9064 72.4807 38.9064 72.3397C39.682 70.154 40.4576 67.9683 41.3742 65.7826C42.0087 64.2315 42.5728 62.6803 43.7714 61.4817C44.0534 61.1997 44.4059 61.0587 44.688 60.8472C44.7585 60.9177 44.829 60.9882 44.8995 61.0587Z" fill="white" stroke="white"/>
</svg>
