<svg width="180" height="78" viewBox="0 0 180 78" fill="none" xmlns="http://www.w3.org/2000/svg">
<path opacity="0.5" d="M18.0273 34.4874C20.7277 33.5482 22.9584 33.0785 25.2479 34.4287C25.6588 34.7223 26.6568 34.0765 27.3025 33.783C27.8896 33.5482 28.7114 32.9611 29.005 33.1373C31.8227 34.6636 34.934 33.6656 37.8692 34.0178C40.4522 34.37 43.2113 34.8984 45.853 34.4874C48.1424 34.1939 50.3732 34.5461 52.6039 34.6636C55.4804 34.8397 58.533 34.1352 61.116 34.7223C65.5188 35.7202 70.0977 34.5461 74.3831 35.8963C75.6746 36.2486 76.966 37.0704 76.5551 38.538C76.0268 40.3578 74.3831 41.4145 72.5633 41.3558C69.6281 41.2384 66.5755 40.8862 63.6403 40.7688C61.116 40.7101 58.533 40.7101 55.9501 40.5926C50.6667 40.4752 45.442 40.1817 40.2174 39.8882C35.6385 39.6534 31.0596 38.9489 26.5394 40.0643C25.0131 40.4165 23.4281 40.5927 22.0779 39.3599C21.9018 39.1838 21.3147 39.0663 21.0799 39.1838C18.8492 40.7101 16.3249 40.6514 13.0375 40.1817C15.8553 42.1777 18.6731 42.4125 20.8451 43.9975C23.1933 45.7586 25.3653 47.8132 28.4766 48.6938C30.0029 49.1634 31.177 50.9245 29.9442 52.7444C28.8288 54.3294 27.6548 53.5075 26.1285 52.9205C23.4868 51.8051 21.0799 50.8071 19.1427 48.5177C17.6751 46.8153 14.8573 47.5197 12.9201 46.0521C10.8067 44.4084 8.16507 43.4104 5.87561 42.0602C5.11246 41.6493 4.40801 41.2971 3.58616 41.2971C2.47078 41.2384 1.238 41.2971 1.00319 39.7708C0.76837 38.3619 1.76633 37.2465 2.82301 36.8943C8.04765 35.4267 11.2177 31.0826 15.4443 28.1474C18.9666 25.6819 22.0779 22.8054 25.3066 20.0463C26.5394 18.9309 27.8309 17.7568 29.2985 19.4592C30.5313 20.9268 30.2964 22.688 28.8288 23.9207C26.8916 25.5057 24.7783 26.9146 22.7823 28.5583C20.9038 29.9672 18.7905 31.2587 18.0273 34.4874Z" fill="#0E0000"/>
<path d="M161.973 43.0594C159.272 43.9987 157.042 44.4683 154.752 43.1181C154.341 42.8246 153.343 43.4704 152.697 43.7639C152.11 43.9987 151.289 44.5857 150.995 44.4096C148.177 42.8833 145.066 43.8813 142.131 43.5291C139.548 43.1768 136.789 42.6485 134.147 43.0594C131.858 43.353 129.627 43.0007 127.396 42.8833C124.52 42.7072 121.467 43.4117 118.884 42.8246C114.481 41.8267 109.902 43.0007 105.617 41.6505C104.325 41.2983 103.034 40.4765 103.445 39.0089C103.973 37.189 105.617 36.1324 107.437 36.1911C110.372 36.3085 113.425 36.6607 116.36 36.7781C118.884 36.8368 121.467 36.8368 124.05 36.9542C129.333 37.0716 134.558 37.3652 139.783 37.6587C144.362 37.8935 148.94 38.5979 153.461 37.4826C154.987 37.1303 156.572 36.9542 157.922 38.187C158.098 38.3631 158.685 38.4805 158.92 38.3631C161.151 36.8368 163.675 36.8955 166.963 37.3651C164.145 35.3692 161.327 35.1344 159.155 33.5494C156.807 31.7883 154.635 29.7336 151.523 28.8531C149.997 28.3835 148.823 26.6223 150.056 24.8025C151.171 23.2175 152.345 24.0394 153.872 24.6264C156.513 25.7418 158.92 26.7397 160.857 29.0292C162.325 30.7316 165.143 30.0272 167.08 31.4948C169.193 33.1385 171.835 34.1364 174.124 35.4866C174.888 35.8976 175.592 36.2498 176.414 36.2498C177.529 36.3085 178.762 36.2498 178.997 37.7761C179.232 39.185 178.234 40.3003 177.177 40.6526C171.952 42.1202 168.782 46.4643 164.556 49.3995C161.033 51.865 157.922 54.7415 154.693 57.5006C153.461 58.616 152.169 59.79 150.702 58.0876C149.469 56.62 149.704 54.8589 151.171 53.6261C153.108 52.0411 155.222 50.6322 157.218 48.9885C159.096 47.5796 161.21 46.2881 161.973 43.0594Z" fill="#C32B39"/>
</svg>
