<svg width="116" height="63" viewBox="0 0 116 63" fill="none" xmlns="http://www.w3.org/2000/svg">
<path opacity="0.2" fill-rule="evenodd" clip-rule="evenodd" d="M28.1334 57.8995C28.7518 57.7464 27.668 58.671 28.286 58.6724C29.2198 55.8933 30.4651 52.0332 29.0811 49.2486C30.1631 49.0966 30.6285 48.3251 30.7848 47.5529C31.4099 44.6185 27.0885 42.445 25.3928 40.7412C28.6451 37.6585 26.3423 31.3177 20.9342 31.3049C19.8511 31.9204 18.9239 31.9182 18.1539 30.8347C21.404 28.6791 22.6493 24.8191 20.6505 20.6423C18.3397 17.7009 14.4748 18.4643 11.5445 16.1395C12.3193 15.2143 13.7111 14.754 14.64 13.9836C17.4394 6.41879 8.17557 3.30636 1.68613 3.1364C1.2233 2.82626 1.07062 2.0533 0.143138 2.20561C3.86079 -1.64855 10.9635 0.531621 16.0601 1.62538C25.7904 3.50277 34.5837 9.54997 40.1343 14.6623C43.5271 17.4518 46.6101 20.5495 47.9901 25.0339C44.2765 27.1883 42.565 32.1289 42.5551 36.3009C45.0326 34.1435 46.5895 29.2026 50.4514 29.6753C49.8275 32.1462 50.4385 35.0835 50.5864 37.8652C51.5121 38.4855 52.4377 39.1058 53.9826 39.264C55.5329 37.1044 56.158 34.17 58.3249 32.6299C58.4905 27.9947 59.2722 24.1336 61.9038 22.1311C66.5482 18.4336 74.2819 15.2071 80.927 14.9139C81.3909 14.7605 81.7011 14.2976 82.3195 14.1446C84.79 14.9231 87.8818 14.3123 91.126 14.6291C91.7441 14.6306 92.5163 14.7869 93.4434 14.7891C98.0775 15.4182 105.799 17.4453 110.123 18.5373C112.439 19.1609 116.147 19.4787 115.523 21.795C108.257 23.1684 96.6707 22.2138 95.5711 29.7826C95.2569 31.9452 96.7977 33.8031 94.9409 34.8803C93.399 33.486 92.6297 32.0934 90.3123 31.9334C84.2871 31.4555 81.4962 35.4664 80.866 40.5641C80.7093 41.4908 81.4797 42.4198 80.3966 43.0353C78.8525 42.5681 78.7016 41.0225 77.4673 40.247C76.5387 40.8628 75.9232 39.7797 75.151 39.6234C68.8179 38.6812 65.5656 41.7639 65.7077 47.0179C64.9347 47.1706 64.7813 46.7066 64.1628 46.8597C60.7594 48.5513 58.2812 51.0178 55.1857 53.1737C53.4834 54.2513 51.4706 55.9462 49.769 56.7148C48.0678 57.3288 46.0569 58.2511 44.3561 58.7106C42.3462 59.1694 40.6476 58.7018 39.2555 59.3166C37.3994 60.0848 35.8472 63.017 32.6038 62.3912C32.9154 61.3103 31.8326 61.7713 31.9894 60.8445C32.1457 60.0723 33.5353 60.5392 33.5375 59.612C32.1531 56.9819 27.8118 63.1524 26.4318 58.668C26.8965 58.2056 27.2066 57.7427 28.1334 57.8995ZM13.1217 2.70004C12.1956 2.23427 13.8931 3.16543 13.1217 2.70004ZM16.8055 13.0617C16.9589 13.5256 16.4935 14.2971 16.9567 14.4527C17.8835 14.6094 17.4239 12.9086 16.8055 13.0617ZM17.4434 4.71908C16.8246 5.02665 17.9055 5.33826 17.9048 5.6473C18.5236 5.33973 17.4427 5.02812 17.4434 4.71908ZM105.79 21.3083C105.636 20.8444 104.708 21.3058 104.399 21.305C104.552 21.7689 105.635 21.4625 105.79 21.3083ZM100.076 19.595C99.3053 18.9751 100.695 19.2874 100.076 19.595ZM96.8377 16.9605C96.3749 16.6503 95.294 16.3387 94.8301 16.4921C95.1373 17.2655 96.3731 17.4229 96.8377 16.9605ZM95.1211 24.0643C95.1226 23.4462 94.9688 23.1368 94.3507 23.1354C94.1947 23.7531 94.503 24.0628 95.1211 24.0643ZM78.4473 17.9984C78.4473 17.9984 78.6019 17.9987 78.7564 17.9991C79.3748 17.8461 78.6019 17.9987 78.4473 17.9984ZM79.838 18.0017C79.2196 18.1547 80.1456 18.6205 80.4546 18.6212C80.4557 18.1577 79.8373 18.3107 79.838 18.0017ZM81.0734 18.3137C80.9167 19.2404 82.3085 18.7802 82.6164 19.2445C82.9266 18.7816 81.5363 18.6238 81.0734 18.3137ZM84.1664 17.2394C84.318 18.4759 85.8657 17.3979 86.1729 18.1713C86.6383 17.3998 84.939 17.2412 84.1664 17.2394ZM83.6973 19.5561C83.6962 20.0196 84.6233 20.0218 84.9331 19.7135C84.9342 19.25 84.0071 19.2478 83.6973 19.5561ZM93.2849 16.4885C92.513 16.1776 94.0582 16.1813 93.2849 16.4885ZM92.1871 23.2847C90.6463 21.4268 88.4863 20.031 86.7907 18.3273C85.3948 20.4872 90.6452 21.8904 92.1871 23.2847ZM86.6133 27.9071C85.0726 26.0492 82.9119 24.9624 80.9064 23.567C80.288 23.72 80.1324 24.1832 79.6681 24.4911C81.8277 26.0415 84.4527 26.8203 86.6133 27.9071ZM80.4311 28.5105C81.3586 28.3582 81.2063 27.4307 80.4344 27.1198C79.9705 27.2732 80.277 28.3556 80.4311 28.5105ZM78.8653 37.1599C79.6387 36.8527 79.9495 36.0808 80.1066 34.9995C79.4878 35.3071 79.0224 36.0786 78.4036 36.3862C78.4032 36.5407 78.4021 37.0043 78.8653 37.1599ZM78.1085 30.5137C78.5747 29.4332 79.0452 26.4984 77.3451 26.6489C77.3418 28.0396 77.6487 28.9674 78.1085 30.5137ZM77.3176 38.2378C77.4721 38.2382 77.6266 38.2386 77.7811 38.2389C77.9367 37.7758 77.4728 37.9292 77.1642 37.7739C77.1634 38.083 77.3179 38.0833 77.3176 38.2378ZM76.0994 30.6635C75.4802 31.1255 76.8702 31.4379 76.0994 30.6635ZM75.485 29.1168C76.2583 28.8096 75.6484 25.4087 74.2577 25.4054C74.5634 26.7968 75.6439 27.2629 75.485 29.1168ZM72.853 31.2738C73.3195 30.0388 73.172 27.1025 71.6279 26.6353C71.9329 28.3357 72.548 29.5734 72.853 31.2738ZM73.0226 24.9389C72.4064 24.1648 71.7879 24.3179 70.8612 24.1611C71.4782 24.6262 72.4027 25.71 73.0226 24.9389ZM70.7067 24.1608C69.4724 23.3852 67.6185 23.2263 66.0744 22.7591C66.8444 23.8426 69.0051 24.9293 70.7067 24.1608ZM66.0435 35.7387C66.0446 35.2751 65.8905 35.1203 65.4269 35.1192C65.4258 35.5827 65.7345 35.738 66.0435 35.7387ZM51.5062 40.9578C51.5051 41.4214 51.5044 41.7304 52.1225 41.7319C52.1236 41.2683 52.1247 40.8048 51.5062 40.9578ZM53.3546 43.4345C53.3542 43.5891 53.3542 43.5891 53.3546 43.4345C53.3542 43.5891 53.3542 43.5891 53.5087 43.5894C53.5087 43.5894 53.3542 43.5891 53.3546 43.4345ZM57.3827 38.963C56.7625 39.8887 57.9975 40.3552 58.1502 41.1281C58.4585 41.4379 57.6907 39.4273 57.3827 38.963ZM63.5764 33.5696C62.9572 34.0316 64.0414 32.9526 63.5764 33.5696ZM63.5499 44.6949C62.9307 45.157 64.0149 44.078 63.5499 44.6949ZM62.9847 22.4427C62.3674 22.1322 63.7584 21.981 62.9847 22.4427ZM62.1923 30.7849C62.5028 30.1676 63.2842 26.4609 61.739 26.4573C62.5076 28.1588 61.888 28.7754 62.1923 30.7849ZM62.0157 40.0557C62.0183 38.9741 61.5599 36.8097 60.3245 36.4977C60.784 38.1985 61.4013 38.509 62.0157 40.0557ZM58.9301 38.0396C58.1586 37.5742 59.5489 37.732 58.9301 38.0396ZM58.1329 48.3906C57.3611 48.0797 58.9066 47.9288 58.1329 48.3906ZM56.4299 49.7772C56.7397 49.4689 57.5123 49.4707 57.3599 48.5432C57.0502 48.8515 56.4317 49.0046 56.4299 49.7772ZM57.524 44.5261C57.2168 43.7528 56.4512 40.8151 55.0598 41.1208C55.5197 42.6671 56.7544 43.2881 57.524 44.5261ZM54.6014 38.9564C53.9844 38.4914 55.2202 38.6489 54.6014 38.9564ZM54.7269 51.1638C54.111 50.2352 53.3399 49.6153 52.4142 48.995C53.0301 49.9236 53.3314 53.1693 54.7269 51.1638ZM53.0374 46.8332C52.7313 45.5963 51.9606 44.8219 51.3447 43.8933C50.727 43.7373 50.8804 44.2013 50.4172 44.0456C50.8779 45.2829 51.493 46.5205 53.0374 46.8332ZM48.8812 40.179C48.7289 39.2515 48.5806 36.6243 47.6554 35.8495C47.9604 37.5499 48.1112 39.0955 48.8812 40.179ZM47.1786 41.4111C47.3331 41.4115 47.3327 41.566 47.3327 41.566C47.6414 41.7212 47.644 40.6396 47.1797 40.9475C47.1793 41.1021 47.1789 41.2566 47.1786 41.4111ZM36.2433 26.3966C35.7798 26.3955 36.2419 27.0147 36.2415 27.1692C36.8596 27.1707 36.0877 26.8598 36.2433 26.3966ZM36.5414 31.0329C35.6153 30.5672 37.3154 30.4167 36.5414 31.0329ZM38.5648 24.8569C38.2605 22.8475 36.4118 20.5253 34.7154 19.1305C35.7919 21.2964 37.1785 22.9994 38.5648 24.8569ZM34.0874 23.3011C34.3946 24.0744 34.8567 24.6936 35.3184 25.4673C35.6293 24.6954 34.7044 23.7661 34.0874 23.3011ZM33.9333 23.1462C33.6261 22.3729 34.3968 23.1473 33.9333 23.1462ZM29.6104 21.5907C31.305 23.758 31.7604 27.1586 34.0746 28.7093C32.845 25.925 32.2347 22.6786 29.6104 21.5907ZM30.5298 24.8378C30.3771 24.0649 31.1479 24.8393 30.5298 24.8378ZM29.1079 37.9687C28.4887 38.4308 29.8786 38.7431 29.1079 37.9687ZM26.0384 29.1537C25.8843 28.9988 26.0403 28.3811 25.4218 28.5342C25.4207 28.9977 25.5749 29.1526 26.0384 29.1537ZM30.6726 29.7828C30.3712 26.5372 27.4435 23.1308 26.2146 20.0374C25.754 18.8002 25.6039 16.9456 24.0598 16.4784C25.5944 20.9631 28.6741 25.4515 30.6726 29.7828ZM29.0041 16.6446C27.6186 14.4781 24.9965 12.4631 23.1448 11.377C23.9123 13.5421 26.999 15.0947 29.0041 16.6446ZM23.8803 26.9853C24.0363 26.3676 23.5731 26.212 23.4197 25.748C23.1103 25.9018 23.2633 26.5203 22.9532 26.9831C23.4168 26.9842 23.5713 26.9846 23.8803 26.9853ZM24.5072 23.2783C24.2004 22.3505 24.0484 21.2685 22.9672 21.1114C23.274 22.0392 23.1162 23.4295 24.5072 23.2783ZM21.149 5.96405C20.9966 5.03657 21.7674 5.811 21.149 5.96405ZM20.99 7.81792C21.1438 8.12732 21.2976 8.43673 21.7611 8.43783C21.6074 8.12843 21.4536 7.81902 20.99 7.81792ZM20.9731 14.9258C21.2822 14.9265 21.4374 14.6179 21.7461 14.7731C21.7475 14.155 20.8204 14.1528 20.9731 14.9258ZM22.3296 29.2994C22.4841 29.2998 22.4849 28.9907 22.4856 28.6817C22.3307 28.8359 22.33 29.1449 22.3296 29.2994ZM23.0013 6.74106C22.8454 7.35877 23.7732 7.05193 23.7721 7.51549C24.2364 7.20756 23.4653 6.58764 23.0013 6.74106ZM24.0811 7.51623C24.08 7.97979 24.5432 8.13541 25.0064 8.29103C25.1624 7.67332 24.5447 7.51733 24.0811 7.51623ZM25.9372 6.74804C25.7849 5.82056 26.5557 6.59499 25.9372 6.74804ZM26.8636 7.05928C28.0979 7.83482 29.0221 9.07318 30.7211 9.38626C29.9514 8.14827 28.4073 7.68104 26.8636 7.05928ZM28.8551 14.3265C29.4717 14.946 31.0095 18.0401 32.5569 17.1166C31.7876 15.7241 30.3988 14.9482 28.8551 14.3265ZM32.8726 14.336C34.4123 16.6575 36.4162 18.671 38.73 20.3762C36.8809 18.2086 36.2705 14.9622 32.8726 14.336ZM42.2428 37.6909C41.9334 37.8446 41.7777 38.3078 41.7763 38.9259C42.5489 38.9278 42.0875 37.9995 42.2428 37.6909ZM45.6172 48.2063C45.6165 48.5153 45.9255 48.516 46.0793 48.8254C46.3887 48.6717 45.9266 48.0525 45.6172 48.2063ZM46.0708 52.3794C45.4542 51.7598 44.5279 51.4486 44.0661 50.6749C43.9101 51.2926 45.2975 52.6866 46.0708 52.3794ZM42.3848 42.9449C41.6107 43.5611 42.9977 45.1096 43.1504 45.8826C43.6162 44.9566 42.692 43.7182 42.3848 42.9449ZM42.9698 56.8531C42.8167 56.2347 42.0445 56.0783 41.7366 55.614C41.5813 55.9227 42.3521 56.6971 42.9698 56.8531ZM41.6515 26.4095C41.9635 25.1741 40.7295 24.244 40.1137 23.3154C39.957 24.2422 40.7255 25.9437 41.6515 26.4095ZM40.5254 45.1038C40.8345 45.1045 40.837 44.0229 40.3724 44.4853C40.3727 44.3308 40.5254 45.1038 40.5254 45.1038ZM39.8926 51.2831C39.7385 51.1282 39.8923 51.4376 39.8926 51.2831ZM40.0637 44.3301C40.5276 44.1766 40.2212 43.0943 39.6023 43.4018C39.911 43.5571 39.9099 44.0206 40.0637 44.3301ZM39.3256 29.8034C39.173 29.0304 39.9437 29.8049 39.3256 29.8034ZM39.1454 40.6194C38.6877 38.146 36.6812 37.2141 34.9844 35.9739C36.2169 37.522 37.6035 39.225 39.1454 40.6194ZM38.5159 45.408C38.3618 45.2531 38.3621 45.0986 38.3621 45.0986C38.3618 45.2531 38.8239 45.8723 38.5159 45.408ZM38.5174 44.7899C37.5947 42.9335 37.2919 40.3059 35.1301 39.6827C36.3622 41.3854 37.1297 43.5505 38.5174 44.7899ZM36.7997 52.3573C37.4189 51.8953 36.4928 51.4295 36.3394 50.9656C35.7206 51.2731 36.6463 51.8934 36.7997 52.3573ZM36.1856 50.6562C35.5705 49.4185 35.5749 47.5643 34.0305 47.2516C34.6452 48.6437 35.1059 49.881 36.1856 50.6562ZM34.374 32.7275C33.6037 31.7986 33.6073 30.2534 32.3723 29.7869C33.1427 30.7158 33.1386 32.4155 34.374 32.7275ZM32.6277 52.3474C32.6284 52.0384 32.4739 52.038 32.4746 51.729C32.0114 51.5734 32.1634 52.6554 32.6277 52.3474ZM32.0662 28.55C31.2947 28.0846 32.6846 28.3969 32.0662 28.55Z" fill="#2C1212"/>
</svg>
